<?xml version="1.0" encoding="UTF-8"?>
<svg id="Ebene_1" xmlns="http://www.w3.org/2000/svg" version="1.1" viewBox="0 0 74 68">
  <!-- Generator: Adobe Illustrator 29.8.1, SVG Export Plug-In . SVG Version: 2.1.1 Build 2)  -->
  <path d="M43.38,21l.76,1.31c-2.8,4.13.28,4.77,2.32,7.38.43.55.5,1.35.89,1.91.42.59,1.06,1.59,1.34,2.02.13.2.49,1.74.5,2.86,0,.76-.81,1.24-1.01,1.75-.28.73.21,1.02-.53,2.1-.6.88-2.75,1.93-3.45,2.95-3.3,4.83,1.75,5.74-8.71,5.79-4.38.02-2.95-1.68-3.88-1.72-1.13-.04-2.1,1.65-3.1.84,2.98-3.22,6.65-2.49,10.11-3.35.9-.22,10.25-4.65,8.95-5.9l-6.45,2.8-.27-1.11c2.17-.87,5.74-1.92,7.3-3.65.63-.7.33-1.34-.3-1.41-1.32-.15-4.69,3.59-7.11,2.82l7.55-4.54c-.86-1.18-.61-1-1.67-.64-2.5.85-4.76,3.01-7.45,3.48,1.42-1.83,2.73-2.24,6.18-3.65.78-.32,1.41.1,1.1-1.39l-11.21,3.92,4.47-3.1-.27-1.39c-6.03,1.94-8.5,8.93-14.85,10.66-1.25-1.24,3.42-2.31,3.72-3.57-.74-3.05-1.89-5.82-.06-8.73,1.65-2.64,5.64-3.19,2.22-7.33l.56-1.1h12.33Z"/>
</svg>