<?xml version="1.0" encoding="UTF-8"?>
<svg id="Hintergrund__x2B__Kurven_1_xA0_Bild" xmlns="http://www.w3.org/2000/svg" version="1.1" viewBox="0 0 236 236">
  <!-- Generator: Adobe Illustrator 29.8.1, SVG Export Plug-In . SVG Version: 2.1.1 Build 2)  -->
  <defs>
    <style>
      .st0 {
        fill: #ff3100;
      }
    </style>
  </defs>
  <path class="st0" d="M236,188v48h-116.25c10.27-9-9.12-56.05-.23-60.5,5.53-2.76,5.6,11.13,8.64,19.4,5.57,15.18,10.1,17.97,19.67,30.93,2.89,4.91,7.43-2.41,8.04-5.78,2.01-11.11.33-28.73-2.58-39.84-7.61-29.01-21.83-46.98-37.45-71.55-8.56-13.46-33.51-48.51-33.58-63.12-.03-6.56.03-13.01,11.81-23.99,5.44-4.24,15.05-8.1,21.94-8.57,1.3-2.03-10.38-2.4-11.46-2.71-11.2-3.18-20.49-3.72-32.01-.45-29.35,8.32-22.45,49.94-28.76,77.44-8.67,37.82-31.67,75.26-18.3,114.77.93,2.74,4.57,12.25,7.78,12.25,5.7,0,10.18-10.56,9.25-25.59-.32-5.13-.96-21.92,3.5-24.26,7.82-4.11,6.02,13,5.24,20.07-2.11,19.16-5.12,35.79-11.49,51.49H0V0h145l91,188Z"/>
</svg>