<?xml version="1.0" encoding="UTF-8"?>
<svg id="Ebene_1" xmlns="http://www.w3.org/2000/svg" version="1.1" viewBox="0 0 127 114">
  <!-- Generator: Adobe Illustrator 29.8.1, SVG Export Plug-In . SVG Version: 2.1.1 Build 2)  -->
  <path d="M65.01,65.5c9.23-8.04,18.7-16.72,27.01-25.74,4.78-5.19,17.23-19.24,17.52-26,.32-7.56-8.2-3.61-11.99-1.47-11.38,6.43-34.84,29.38-43.03,39.97-.22.28-1.12,1.65-1.01,1.74,6.08.39,10.88,5.58,11.51,11.5ZM57.01,73l6.76-6.01c-.18-6.12-5.56-11.81-11.8-11.77l-5.96,6.78c5.57.57,10.18,5.55,11.01,11ZM55.39,74.9c2.31-3.97-7.14-13.44-11.05-11.35-1.57.84-3.15,4.1-4.8,5.27-.12.7,9.13,9.95,9.82,10.13.82.21,5.76-3.57,6.04-4.05Z"/>
  <path d="M42,75.49c-7.51,3.29-12.74,10.71-15.99,18.01,2.37-2.22,4.34-4.8,6.76-6.99,1.3-1.18,10.62-8.34,11.48-8.34,1.57-.01,3.51,4.21,3.71,5.62,2.04,14.32-19.65,15.53-28.37,20.54l-4.59,2.64c-.88-.58.18-1.89.56-2.67,3.52-7.32,1.31-12.68,4.59-19.9,4.27-9.39,12.32-20.84,21.86-8.9Z"/>
</svg>