<?xml version="1.0" encoding="UTF-8"?>
<svg id="Ebene_1" xmlns="http://www.w3.org/2000/svg" version="1.1" viewBox="0 0 18.58 19.33">
  <!-- Generator: Adobe Illustrator 29.8.1, SVG Export Plug-In . SVG Version: 2.1.1 Build 2)  -->
  <path d="M12.81,1.42l.44.75c-1.6,2.37.16,2.73,1.33,4.23.25.32.29.77.51,1.09.24.34.61.91.77,1.16.07.11.28,1,.29,1.64,0,.44-.46.71-.58,1-.16.42.12.58-.3,1.2-.34.5-1.58,1.11-1.98,1.69-1.89,2.77,1,3.29-4.99,3.32-2.51.01-1.69-.96-2.22-.99-.65-.02-1.2.95-1.78.48,1.71-1.84,3.81-1.43,5.79-1.92.52-.13,5.87-2.66,5.13-3.38l-3.7,1.6-.15-.64c1.24-.5,3.29-1.1,4.18-2.09.36-.4.19-.77-.17-.81-.76-.09-2.69,2.06-4.07,1.62l4.33-2.6c-.49-.68-.35-.57-.96-.37-1.43.49-2.73,1.72-4.27,1.99.81-1.05,1.56-1.28,3.54-2.09.45-.18.81.06.63-.8l-6.42,2.25,2.56-1.78-.15-.8c-3.45,1.11-4.87,5.12-8.51,6.11-.72-.71,1.96-1.32,2.13-2.05-.42-1.75-1.08-3.33-.03-5,.95-1.51,3.23-1.83,1.27-4.2l.32-.63h7.08Z"/>
</svg>