<?xml version="1.0" encoding="UTF-8"?>
<svg id="Ebene_1" xmlns="http://www.w3.org/2000/svg" version="1.1" viewBox="0 0 381.18 26.63">
  <!-- Generator: Adobe Illustrator 29.3.0, SVG Export Plug-In . SVG Version: 2.1.0 Build 146)  -->
  <defs>
    <style>
      .st0 {
        fill: #1d1d1b;
      }
    </style>
  </defs>
  <path class="st0" d="M346.37,26.15h22.64l2.68-5.75h-12.23l19.27-14.61,2.46-5.27h-22.63l-2.73,5.86h12.23l-19.27,14.61-2.41,5.16ZM327.68,26.15h8.72l9.22-19.78h8.35l2.73-5.86h-25.49l-2.73,5.86h8.42l-9.22,19.78ZM317,8.17l-1.29,8.5h-5.42l6.71-8.5ZM294.58,26.15h8.2l3.46-4.36h8.68l-.64,4.36h8.75l2.5-25.64h-9.56l-21.4,25.64ZM271.37,26.15h21.43l2.68-5.75h-12.71l9.27-19.89h-8.72l-11.95,25.64ZM259.95,26.15h7.69l6.54-14.03h-12.85l-2.08,4.47h4.76c-2.06,3.08-4.34,4.43-6.64,4.43-2.97,0-3.78-2.27-1.35-7.47,2.51-5.38,5.28-7.54,8.24-7.54,1.98,0,2.95,1.06,2.43,3.59h8.46c1.7-6.15-1.35-9.6-8.31-9.6-8.17,0-15.43,4.43-19.64,13.44-3.88,8.31-1.74,13.15,4.89,13.15,3.3,0,6.55-1.39,9.48-3.99l-1.62,3.55ZM221.35,26.15h8.75L242.05.51h-8.75l-11.95,25.64ZM181.9,26.15h7.22l6.62-14.36,1.01,7.18,1.05,7.18h8.57L218.32.51h-7.22l-6.62,14.36-1.01-7.18-1.05-7.18h-8.57l-11.95,25.64ZM169.04,26.15h8.75L189.75.51h-8.75l-11.95,25.64ZM143.62,26.15h21.61l2.68-5.75h-12.93l2.05-4.4h9.38l2.53-5.42h-9.38l1.98-4.25h12.93l2.72-5.82h-21.61l-11.95,25.64ZM124.26,26.15h8.72l9.22-19.78h8.35l2.73-5.86h-25.49l-2.73,5.86h8.42l-9.22,19.78ZM103.69,26.63c7.07,0,13.09-3.33,15.41-8.31,2.66-5.71-2.12-7.07-6.04-8.17-2.66-.73-4.95-1.32-4.12-3.11.5-1.06,1.88-1.9,3.64-1.9,2.16,0,3.19,1.17,2.66,3.48h8.13C124.76,3.19,121.62.04,114.58.04s-12.62,3.33-14.87,8.17c-2.65,5.68,2.14,6.96,6.09,7.98,2.73.73,5.06,1.32,4.19,3.19-.62,1.32-2.2,2.2-4.1,2.2-2.31,0-3.34-.84-2.72-3.52h-8.13c-1.75,5.71,1.5,8.57,8.64,8.57M83.86,6.48c3.88,0,5.01,1.98,2.7,6.92-2.29,4.91-5.32,6.85-9.13,6.85h-2.01l6.42-13.77h2.01ZM63.96,26.15h11.72c7.84,0,15.72-4.1,19.77-12.78,4.06-8.72.1-12.85-7.56-12.85h-11.98l-11.95,25.64ZM39.87,26.15h21.43l2.68-5.75h-12.71L60.54.51h-8.72l-11.95,25.64ZM27.02,26.15h8.75L47.73.51h-8.75l-11.95,25.64ZM18.06,15.86c1.32,0,2.19.81,1.44,2.42-.75,1.61-2.28,2.45-3.71,2.45h-4.69l2.27-4.87h4.69ZM22.07,6.08c1.43,0,2.28.77,1.51,2.42-.77,1.65-2.21,2.38-3.71,2.38h-4.18l2.24-4.8h4.14ZM0,26.15h15.6c5.38,0,9.93-2.53,12.02-7,1.59-3.41.69-5.49-2.46-6.19,3.4-.77,6.1-2.78,7.5-5.79,1.96-4.21-.04-6.66-5.54-6.66h-15.16L0,26.15Z"/>
</svg>