<?xml version="1.0" encoding="UTF-8"?>
<svg id="Ebene_1" xmlns="http://www.w3.org/2000/svg" version="1.1" viewBox="0 0 32 32">
  <!-- Generator: Adobe Illustrator 29.3.0, SVG Export Plug-In . SVG Version: 2.1.0 Build 146)  -->
  <defs>
    <style>
      .st0 {
        fill: #1d1d1b;
      }
    </style>
  </defs>
  <path class="st0" d="M16,31.37c-7.19,0-13.04-5.85-13.04-13.05S8.81,5.28,16,5.28s13.05,5.85,13.05,13.04-5.85,13.05-13.05,13.05ZM16,6.28c-6.64,0-12.04,5.4-12.04,12.04s5.4,12.05,12.04,12.05,12.05-5.4,12.05-12.05-5.4-12.04-12.05-12.04Z"/>
  <path class="st0" d="M16,27.5c-1.2,0-2.53-.97-2.53-2.28v-6.15c-1.62-.82-2.58-2.5-2.58-4.58,0-2.82,2.29-5.11,5.11-5.11s5.11,2.29,5.11,5.11c0,2.02-1,3.75-2.65,4.58v6.15c0,1.21-1.15,2.28-2.47,2.28ZM16,10.39c-2.27,0-4.11,1.84-4.11,4.11,0,1.78.85,3.2,2.27,3.8l.31.13v6.8c0,.71.84,1.28,1.53,1.28.75,0,1.47-.62,1.47-1.28v-6.8l.31-.13c1.44-.6,2.34-2.06,2.34-3.8,0-2.27-1.84-4.11-4.11-4.11Z"/>
</svg>